<?xml version="1.0" standalone="no"?>
<!DOCTYPE svg PUBLIC "-//W3C//DTD SVG 20010904//EN"
 "http://www.w3.org/TR/2001/REC-SVG-20010904/DTD/svg10.dtd">
<svg version="1.0" xmlns="http://www.w3.org/2000/svg"
 width="880.000000pt" height="880.000000pt" viewBox="0 0 880.000000 880.000000"
 preserveAspectRatio="xMidYMid meet">
<metadata>
Created by potrace 1.11, written by Peter Selinger 2001-2013
</metadata>
<g transform="translate(0.000000,880.000000) scale(0.100000,-0.100000)"
fill="#000000" stroke="none">
<path d="M2555 8280 c-203 -18 -360 -91 -507 -236 -131 -129 -227 -307 -280
-519 -43 -177 -50 -238 -55 -495 -4 -217 -2 -284 16 -445 12 -104 26 -210 31
-235 6 -25 21 -106 36 -180 14 -74 34 -170 45 -214 10 -43 19 -85 19 -92 0 -7
-19 -18 -42 -25 -94 -26 -290 -90 -418 -138 -665 -245 -1124 -583 -1295 -954
-19 -40 -44 -111 -56 -157 -19 -73 -21 -102 -16 -225 4 -117 9 -153 31 -220
89 -264 279 -486 601 -702 271 -181 642 -345 1093 -484 67 -20 102 -36 102
-45 0 -8 -13 -72 -30 -142 -44 -189 -49 -211 -59 -282 -6 -36 -16 -110 -25
-165 -8 -55 -17 -120 -21 -145 -3 -25 -9 -164 -12 -310 -5 -238 -3 -280 16
-412 12 -81 26 -160 31 -175 5 -16 18 -62 30 -103 12 -41 46 -124 75 -185 138
-284 361 -449 664 -491 95 -13 131 -14 225 -4 316 33 655 180 1041 450 104 73
335 263 472 389 73 67 135 121 139 121 3 0 59 -49 123 -108 481 -447 935 -724
1341 -821 422 -100 782 19 997 331 121 175 193 396 224 683 11 107 7 536 -6
630 -4 22 -13 87 -21 145 -25 181 -46 290 -90 477 -28 118 -29 132 -11 138 6
2 80 25 162 50 767 238 1294 570 1531 965 38 63 64 122 100 225 26 75 26 336
0 425 -49 167 -142 323 -279 467 -172 180 -385 325 -707 482 -208 102 -544
229 -739 281 -24 6 -53 15 -66 20 l-22 8 19 74 c33 128 87 411 110 580 20 142
23 203 22 468 -1 288 -2 312 -27 432 -55 268 -140 454 -274 600 -169 186 -365
269 -629 269 -68 0 -141 -3 -161 -6 -189 -31 -414 -108 -593 -203 -36 -20 -83
-45 -105 -57 -92 -49 -322 -203 -439 -294 -60 -48 -187 -151 -196 -161 -3 -3
-23 -20 -45 -39 -22 -18 -67 -59 -100 -89 -33 -31 -74 -69 -92 -85 l-31 -29
-89 84 c-252 239 -565 475 -828 623 -342 193 -659 280 -930 255z m360 -397
c244 -74 489 -209 772 -425 112 -86 430 -363 446 -389 9 -14 -12 -42 -107
-150 -182 -206 -381 -455 -541 -678 -46 -63 -89 -113 -100 -115 -11 -2 -74 -9
-140 -15 -246 -22 -632 -80 -840 -126 -140 -31 -176 -38 -180 -33 -10 10 -64
239 -88 378 -65 361 -83 678 -52 912 49 370 182 586 403 659 47 16 80 18 192
15 115 -3 150 -8 235 -33z m3390 22 c160 -42 286 -177 355 -377 101 -299 103
-721 6 -1233 -29 -150 -71 -334 -80 -342 -5 -5 -14 -4 -266 46 -256 51 -506
88 -784 115 -90 9 -131 17 -136 27 -13 23 -290 388 -355 468 -93 114 -171 206
-277 327 -54 62 -98 116 -98 121 0 15 153 157 300 279 358 298 687 486 974
559 112 29 272 33 361 10z m-1709 -1330 c139 -162 324 -395 324 -407 0 -7 -40
-8 -117 -3 -146 9 -672 9 -810 0 -68 -5 -103 -4 -103 3 0 21 307 397 470 575
l45 49 44 -48 c24 -27 90 -103 147 -169z m439 -785 c77 -5 147 -10 156 -10 17
0 67 -71 223 -317 176 -278 306 -507 475 -834 l121 -237 -65 -133 c-70 -146
-160 -317 -206 -392 -16 -26 -29 -49 -29 -52 0 -8 -227 -392 -278 -470 -102
-158 -206 -311 -221 -327 -33 -35 -787 -51 -1320 -29 -145 7 -272 16 -283 22
-10 6 -40 43 -65 82 -25 40 -83 128 -128 197 -146 222 -347 576 -522 918 l-94
183 55 112 c106 216 288 550 400 732 30 50 74 122 97 160 45 73 139 217 211
322 l43 62 80 6 c298 23 1036 26 1350 5z m-1915 -71 c0 -6 -8 -23 -19 -37 -10
-15 -29 -45 -42 -68 -13 -22 -90 -150 -170 -285 -80 -134 -175 -300 -211 -367
-35 -68 -68 -125 -73 -125 -5 -1 -20 25 -33 58 -56 142 -152 398 -152 407 0 6
-6 24 -14 41 -8 18 -24 64 -36 102 -12 39 -28 87 -36 108 -11 30 -11 38 -2 42
22 6 300 64 343 70 22 3 81 13 130 21 246 41 315 48 315 33z m2725 -8 c180
-27 313 -49 425 -72 52 -11 120 -25 150 -30 30 -6 58 -14 62 -17 6 -6 -70
-239 -133 -412 -5 -14 -11 -32 -15 -41 -37 -102 -123 -304 -130 -306 -5 -1
-19 19 -31 45 -58 126 -300 549 -428 747 -28 44 -54 86 -59 93 -10 16 1 15
159 -7z m-3824 -381 c31 -91 61 -178 67 -193 7 -16 12 -31 12 -34 0 -24 166
-429 245 -598 26 -56 44 -109 42 -120 -4 -16 -138 -334 -178 -420 -33 -73
-186 -499 -225 -628 -12 -41 -21 -56 -31 -53 -8 3 -39 13 -71 22 -31 9 -122
37 -202 64 -569 189 -980 437 -1178 711 -64 89 -112 218 -112 302 0 233 176
465 515 678 108 68 295 167 385 204 36 14 79 32 95 40 112 49 540 195 565 192
10 -2 34 -58 71 -167z m4989 123 c280 -87 637 -235 790 -329 292 -177 440
-306 532 -462 65 -110 82 -168 81 -282 0 -82 -4 -105 -30 -167 -110 -263 -425
-507 -933 -723 -183 -77 -180 -76 -240 -94 -30 -10 -71 -23 -90 -31 -19 -8
-69 -23 -110 -35 -41 -12 -94 -29 -118 -37 -23 -9 -44 -14 -46 -12 -2 2 -13
36 -26 74 -48 150 -123 360 -131 369 -5 6 -9 16 -9 23 0 13 -57 164 -91 240
-11 23 -19 44 -19 47 0 2 -13 33 -29 68 -113 244 -132 298 -113 321 33 41 254
594 342 857 76 224 75 223 103 215 12 -4 74 -23 137 -42z m-4357 -1584 c21
-41 51 -96 67 -124 15 -27 39 -70 52 -95 55 -103 178 -309 301 -505 26 -41 47
-78 47 -80 0 -3 -15 -5 -32 -5 -95 0 -768 120 -768 137 0 11 97 288 155 443
97 258 119 310 130 307 5 -2 27 -37 48 -78z m3575 49 c6 -18 42 -116 81 -217
75 -196 171 -474 171 -497 0 -16 -42 -28 -240 -65 -273 -52 -550 -91 -550 -78
0 4 22 43 49 86 63 100 217 358 264 443 19 36 52 94 72 130 19 36 55 102 78
148 23 45 46 82 53 82 6 0 16 -15 22 -32z m-3910 -1102 c296 -63 664 -120 944
-147 70 -7 131 -15 136 -18 4 -3 75 -95 157 -204 232 -308 370 -476 538 -654
l58 -62 -83 -79 c-414 -395 -858 -677 -1201 -762 -326 -81 -552 10 -678 275
-90 191 -115 332 -113 655 2 312 51 662 135 973 11 42 13 43 107 23z m4281
-23 c39 -150 59 -245 91 -443 22 -136 24 -152 41 -345 23 -254 -10 -607 -70
-750 -86 -205 -175 -307 -316 -363 -64 -25 -81 -27 -200 -26 -140 1 -195 12
-345 66 -143 52 -364 168 -491 258 -20 14 -58 40 -85 59 -120 83 -331 260
-478 399 -90 85 -90 80 -6 169 30 33 80 88 110 124 30 35 59 69 65 75 11 12
135 164 207 254 24 30 92 120 151 200 59 80 115 154 125 165 14 18 38 23 152
34 136 13 540 70 680 96 192 35 294 55 298 60 3 3 18 5 33 5 24 0 30 -5 38
-37z m-2116 -180 c240 2 437 1 437 -1 0 -29 -492 -612 -516 -612 -24 0 -514
586 -514 615 0 8 22 9 78 2 42 -5 274 -7 515 -4z"/>
<path d="M4279 5159 c-201 -29 -400 -156 -520 -331 -99 -145 -143 -313 -128
-494 17 -213 91 -370 244 -512 260 -244 651 -281 946 -91 316 205 442 582 312
939 -28 75 -108 200 -169 262 -180 183 -427 265 -685 227z"/>
</g>
</svg>
